<svg id="Layer_1" data-name="Layer 1" xmlns="http://www.w3.org/2000/svg" viewBox="0 0 216.47 108"><defs><style>.cls-1{fill:#0075c9;}.cls-2{fill:#fd495c;}</style></defs><title>logo</title><path class="cls-1" d="M47,20.81a2.53,2.53,0,0,0-1.75-1.6c-.8-.21-1.61-.4-2.43-.56A36,36,0,0,0,14.37,82.74a.48.48,0,0,0,.75-.5c-.54-2.16-1-4.41-1.43-6.73a2.45,2.45,0,0,0-.6-1.24,30.59,30.59,0,0,1,30.7-49.86,31,31,0,0,1,3.94,1.34.48.48,0,0,0,.64-.57c-.44-1.55-.91-3-1.41-4.37"/><path class="cls-1" d="M56.87,25.76c.54,2.16,1,4.41,1.43,6.73a2.51,2.51,0,0,0,.59,1.24A30.58,30.58,0,0,1,24.25,82.25a.48.48,0,0,0-.64.57c.44,1.55.92,3,1.42,4.38a2.53,2.53,0,0,0,1.74,1.59A36,36,0,0,0,57.62,25.26a.48.48,0,0,0-.75.5"/><path class="cls-2" d="M54.73,54C54.73,24.26,45,4.28,36,4.28c-4.45,0-8.82,4.49-12.32,12.63a1.18,1.18,0,0,1-.69.64c-1,.35-1.95.75-2.9,1.18.16-.45.33-.89.49-1.31C24.58,7.24,30.05,1.63,36,1.63S47.41,7.24,51.41,17.42c3.85,9.79,6,22.78,6,36.58a123.31,123.31,0,0,1-1.44,19.14,1.13,1.13,0,0,1-.33.64,26.93,26.93,0,0,1-2.92,2.52,116.76,116.76,0,0,0,2-22.3m-1.8-37.18C48.66,6,42.65,0,36,0S23.32,6,19.06,16.82c-.42,1.06-.83,2.21-1.23,3.42a.74.74,0,0,0,.1.66.75.75,0,0,0,.94.22,37.93,37.93,0,0,1,4.66-2,2.8,2.8,0,0,0,1.64-1.54C28.35,10.16,32.29,5.91,36,5.91,44.08,5.91,53.1,25.66,53.1,54a112.83,112.83,0,0,1-2.46,24.15.77.77,0,0,0,.15.62.76.76,0,0,0,.58.28.71.71,0,0,0,.39-.12,29.49,29.49,0,0,0,5-4,2.82,2.82,0,0,0,.79-1.55A125.3,125.3,0,0,0,59,54c0-14-2.16-27.2-6.08-37.18"/><path class="cls-2" d="M17.26,54c0,29.74,9.69,49.72,18.73,49.72,4.45,0,8.83-4.49,12.33-12.63a1.21,1.21,0,0,1,.68-.65q1.48-.52,2.91-1.17c-.17.45-.33.89-.5,1.31-4,10.18-9.48,15.79-15.42,15.79s-11.41-5.61-15.42-15.79c-3.84-9.79-6-22.78-6-36.58A124.54,124.54,0,0,1,16,34.87a1.2,1.2,0,0,1,.33-.64,28.17,28.17,0,0,1,2.92-2.53,116.94,116.94,0,0,0-2,22.3M53.11,86.87a37,37,0,0,1-4.65,2,2.78,2.78,0,0,0-1.64,1.53c-3.18,7.4-7.12,11.65-10.83,11.65-8.09,0-17.1-19.75-17.1-48.09a112.68,112.68,0,0,1,2.45-24.14.76.76,0,0,0-.14-.62.76.76,0,0,0-1-.16,30.17,30.17,0,0,0-5,4,2.82,2.82,0,0,0-.79,1.55A126.34,126.34,0,0,0,13,54c0,14,2.16,27.2,6.08,37.18C23.32,102,29.34,108,36,108s12.67-6,16.94-16.82c.42-1.07.83-2.22,1.23-3.42a.74.74,0,0,0-1-.89"/><path class="cls-1" d="M95.17,39.82c0-6.18-.61-7.61-3.07-7.61S89,33.64,89,39.82s.65,7.6,3.1,7.6,3.07-1.43,3.07-7.6m5,0c0,4.46-2.9,8.18-8.12,8.18S84,44.28,84,39.82s2.93-8.19,8.11-8.19,8.12,3.68,8.12,8.19"/><path class="cls-1" d="M109.67,47.11v.58h-7v-.58c1.3-.37,1.37-1.8,1.37-3.54V26.31c0-1.19-.34-1.7-1.71-2.22v-.57l6-1.27V43.57c0,1.87.17,3.24,1.37,3.54"/><path class="cls-1" d="M115.05,28.9a2.32,2.32,0,1,1,0-4.63,2.32,2.32,0,1,1,0,4.63m3.86,18.21v.58h-7v-.58c1.29-.41,1.36-1.84,1.36-3.58V36c0-1.16-.34-1.64-1.74-2.39V33l6-1.37v11.9c0,1.91.17,3.24,1.4,3.58"/><path class="cls-1" d="M137,31.94v.58c-.78,0-2.25,0-4.43,5.28L128.49,48H128c-6-13.1-6.35-13.68-6.35-13.68-.82-1.8-1.7-1.8-2.32-1.8v-.58h8v.58c-1.91,0-.65,2.56-.65,2.56l3.38,7.22,1.87-4.63s2.12-5.15-1.6-5.15v-.58Z"/><path class="cls-1" d="M141.45,28.9a2.32,2.32,0,1,1,0-4.63,2.32,2.32,0,1,1,0,4.63m3.85,18.21v.58h-7v-.58c1.3-.41,1.37-1.84,1.37-3.58V36c0-1.16-.34-1.64-1.74-2.39V33l6-1.37v11.9c0,1.91.17,3.24,1.39,3.58"/><path class="cls-1" d="M156.83,39.58c-3.34.75-4.47,2.35-4.47,4.09a2.19,2.19,0,0,0,2.22,2.25,2.52,2.52,0,0,0,2.25-1.74Zm6.85,5.76.58.24c-.27,1.09-1.84,2.42-4,2.42,0,0-3,0-3.42-2.76-.51,1.5-2.52,2.76-4.94,2.76,0,0-3.92,0-3.92-3.48,0-3.72,2.86-4.06,8.83-5.56V36.85c0-3.55-2-5.32-4.33-4.09-1.09.54-1.23,1.12-1,1.16a1.75,1.75,0,0,1,1.26.75,1.92,1.92,0,0,1-.51,2.69,2,2,0,0,1-2.69-.51,2,2,0,0,1-.11-2.05,5.66,5.66,0,0,1,2.66-2.49,6.77,6.77,0,0,1,3.31-.68c4.47,0,5.7,2.8,5.7,6.82v5.08s0,2.39,1.63,2.39a1,1,0,0,0,.92-.58"/><path class="cls-1" d="M186.19,39.82c0-6.18-.61-7.61-3.07-7.61s-3.1,1.43-3.1,7.61.65,7.6,3.1,7.6,3.07-1.43,3.07-7.6m5.05,0c0,4.46-2.9,8.18-8.12,8.18S175,44.28,175,39.82s2.93-8.19,8.11-8.19,8.12,3.68,8.12,8.19"/><path class="cls-1" d="M203.79,44.39l.51.3A5.85,5.85,0,0,1,199.25,48c-2.69,0-4.29-1.09-4.29-5.22V32.52h-1.71l-.1-.58H195V27.37l4.26-.72v5.29h4.06l-.14.58h-3.92V42.68c0,1.91.82,2.9,2.52,2.9a2.52,2.52,0,0,0,2-1.19"/><path class="cls-1" d="M215.86,44.39l.52.3a5.88,5.88,0,0,1-5,3.31c-2.7,0-4.3-1.09-4.3-5.22V32.52h-1.7l-.11-.58H207V27.37l4.26-.72v5.29h4.06l-.14.58h-3.92V42.68c0,1.91.82,2.9,2.53,2.9a2.48,2.48,0,0,0,2-1.19"/><path class="cls-2" d="M85,71.06a3.25,3.25,0,0,1-1-2.47V63.32a3.28,3.28,0,0,1,1-2.47,3.63,3.63,0,0,1,2.59-.94,4,4,0,0,1,1.87.42,3,3,0,0,1,1.26,1.17,3.32,3.32,0,0,1,.45,1.72v.46a.15.15,0,0,1-.17.17H89.67c-.11,0-.16-.06-.16-.17v-.46A1.83,1.83,0,0,0,89,61.85a1.89,1.89,0,0,0-1.42-.53,1.91,1.91,0,0,0-1.42.54,2,2,0,0,0-.54,1.43v5.33A2,2,0,0,0,89,70.09a1.79,1.79,0,0,0,.53-1.36V67.16a.06.06,0,0,0-.07-.07H87.67a.15.15,0,0,1-.17-.17v-1a.15.15,0,0,1,.17-.17H91a.15.15,0,0,1,.17.17v2.64a3.4,3.4,0,0,1-1,2.56,3.62,3.62,0,0,1-2.61.93A3.59,3.59,0,0,1,85,71.06"/><path class="cls-2" d="M95.25,61.52V65.3s0,.07.06.07h2a1.6,1.6,0,0,0,1.25-.54,2,2,0,0,0,.48-1.4A2.08,2.08,0,0,0,98.62,62a1.59,1.59,0,0,0-1.26-.54h-2s-.06,0-.06.07m3.9,10.21-2-5a.08.08,0,0,0-.07,0H95.31s-.06,0-.06.07v5a.15.15,0,0,1-.17.17H93.79a.15.15,0,0,1-.17-.17V60.22a.15.15,0,0,1,.17-.17h3.78a3,3,0,0,1,2.28.93,3.41,3.41,0,0,1,.86,2.43,3.49,3.49,0,0,1-.52,1.94,2.67,2.67,0,0,1-1.43,1.11s-.05,0,0,.09l2.06,5.11,0,.07c0,.09,0,.14-.15.14H99.33a.18.18,0,0,1-.18-.14"/><path class="cls-2" d="M105,68.4a.08.08,0,0,0,.06,0h3l.06,0s0,0,0-.05l-1.57-6.11a.05.05,0,0,0,0,0l0,0L105,68.35s0,0,0,.05m4,3.31-.51-1.95a.08.08,0,0,0-.08-.06H104.7q-.09,0-.09.06l-.49,1.95a.16.16,0,0,1-.18.16h-1.32a.15.15,0,0,1-.13-.06.17.17,0,0,1,0-.13l3.12-11.48a.18.18,0,0,1,.19-.15h1.58a.17.17,0,0,1,.19.15l3.14,11.48,0,0c0,.09-.06.14-.17.14H109.2a.18.18,0,0,1-.18-.16"/><path class="cls-2" d="M117.6,64.93a2,2,0,0,0,.5-1.45,2.12,2.12,0,0,0-.5-1.49,1.66,1.66,0,0,0-1.3-.56h-2s-.07,0-.07.07v3.92s0,.06.07.06h2a1.65,1.65,0,0,0,1.3-.55m1.24-4a3.48,3.48,0,0,1,.87,2.47,3.37,3.37,0,0,1-.87,2.42,3,3,0,0,1-2.31.92h-2.26a.06.06,0,0,0-.07.07V71.7a.15.15,0,0,1-.17.17h-1.28a.15.15,0,0,1-.17-.17V60.2a.15.15,0,0,1,.17-.17h3.78a3,3,0,0,1,2.31.94"/><path class="cls-2" d="M127.39,60.05h1.28a.15.15,0,0,1,.17.17V71.7a.15.15,0,0,1-.17.17h-1.28a.15.15,0,0,1-.17-.17v-5s0-.07-.07-.07h-3.68a.06.06,0,0,0-.07.07v5a.15.15,0,0,1-.17.17H122a.15.15,0,0,1-.17-.17V60.22a.15.15,0,0,1,.17-.17h1.28c.12,0,.17.05.17.17v4.94a.06.06,0,0,0,.07.07h3.68s.07,0,.07-.07V60.22c0-.12,0-.17.17-.17"/><path class="cls-2" d="M131.57,71.7V60.22a.15.15,0,0,1,.17-.17H133a.15.15,0,0,1,.17.17V71.7a.15.15,0,0,1-.17.17h-1.28a.15.15,0,0,1-.17-.17"/><path class="cls-2" d="M137.39,71.57a3.09,3.09,0,0,1-1.27-1.21,3.61,3.61,0,0,1-.45-1.82V63.36a3.3,3.3,0,0,1,1-2.51,3.66,3.66,0,0,1,2.61-.94,3.62,3.62,0,0,1,2.6.93,3.25,3.25,0,0,1,1,2.47v.13a.22.22,0,0,1,0,.14.21.21,0,0,1-.12.05l-1.28.07a.15.15,0,0,1-.17-.17v-.26a2,2,0,1,0-3.94,0v5.37a1.92,1.92,0,0,0,.55,1.42,2,2,0,0,0,1.43.54,1.85,1.85,0,0,0,2-2v-.23c0-.12.05-.17.17-.17l1.28.06a.15.15,0,0,1,.17.17v.12a3.5,3.5,0,0,1-.45,1.79,3,3,0,0,1-1.26,1.2,4,4,0,0,1-1.87.42,3.92,3.92,0,0,1-1.88-.43"/><path class="cls-2" d="M150.65,70.46h1.94a1.62,1.62,0,0,0,1.29-.55,2.24,2.24,0,0,0,.5-1.48V63.49a2.19,2.19,0,0,0-.49-1.49,1.68,1.68,0,0,0-1.32-.55h-1.92c-.05,0-.07,0-.07.07V70.4s0,.06.07.06M149,71.7V60.22a.15.15,0,0,1,.17-.17h3.42a3.5,3.5,0,0,1,2.51.89,3.13,3.13,0,0,1,.94,2.38v5.27a3.11,3.11,0,0,1-.94,2.38,3.46,3.46,0,0,1-2.51.9h-3.42a.15.15,0,0,1-.17-.17"/><path class="cls-2" d="M165,61.45h-4.89c-.05,0-.07,0-.07.07v3.64s0,.07.07.07h3.22a.15.15,0,0,1,.17.17v1.06a.15.15,0,0,1-.17.17h-3.22c-.05,0-.07,0-.07.07v3.7s0,.06.07.06H165a.15.15,0,0,1,.17.17V71.7c0,.11-.05.16-.17.16H158.6c-.11,0-.17,0-.17-.16V60.22a.15.15,0,0,1,.17-.17H165c.12,0,.17.05.17.17v1.06a.15.15,0,0,1-.17.17"/><path class="cls-2" d="M168.67,71.6a3,3,0,0,1-1.27-1.1,3,3,0,0,1-.45-1.66v-.45a.15.15,0,0,1,.17-.17h1.25a.15.15,0,0,1,.17.17v.37a1.68,1.68,0,0,0,.57,1.33,2.17,2.17,0,0,0,1.52.51,1.9,1.9,0,0,0,1.36-.47,1.58,1.58,0,0,0,.5-1.22,1.52,1.52,0,0,0-.25-.88,2.76,2.76,0,0,0-.74-.69c-.32-.21-.78-.48-1.39-.81a16.43,16.43,0,0,1-1.64-1,3.51,3.51,0,0,1-1-1.07,3.16,3.16,0,0,1,.53-3.78,3.61,3.61,0,0,1,2.46-.81,4.12,4.12,0,0,1,1.87.41,3,3,0,0,1,1.26,1.14,3.16,3.16,0,0,1,.45,1.69v.39a.15.15,0,0,1-.17.17h-1.26c-.12,0-.17-.05-.17-.17v-.35a1.8,1.8,0,0,0-.54-1.35,2,2,0,0,0-1.47-.52,1.84,1.84,0,0,0-1.29.42,1.54,1.54,0,0,0-.47,1.2,1.6,1.6,0,0,0,.23.86,2.36,2.36,0,0,0,.7.66,14.9,14.9,0,0,0,1.4.79q1.17.66,1.77,1.08a3.4,3.4,0,0,1,1,1,2.64,2.64,0,0,1,.39,1.47,2.94,2.94,0,0,1-1,2.31,3.71,3.71,0,0,1-2.57.86,4.22,4.22,0,0,1-1.9-.4"/><path class="cls-2" d="M176.36,71.7V60.22a.15.15,0,0,1,.17-.17h1.28a.15.15,0,0,1,.17.17V71.7a.15.15,0,0,1-.17.17h-1.28a.15.15,0,0,1-.17-.17"/><path class="cls-2" d="M181.45,71.06a3.25,3.25,0,0,1-1-2.47V63.32a3.28,3.28,0,0,1,1-2.47,3.63,3.63,0,0,1,2.59-.94,4,4,0,0,1,1.87.42,3,3,0,0,1,1.26,1.17,3.32,3.32,0,0,1,.45,1.72v.46a.15.15,0,0,1-.17.17h-1.29c-.11,0-.16-.06-.16-.17v-.46a1.83,1.83,0,0,0-.54-1.37,1.89,1.89,0,0,0-1.42-.53,1.91,1.91,0,0,0-1.42.54,2,2,0,0,0-.54,1.43v5.33a2,2,0,0,0,3.39,1.47,1.79,1.79,0,0,0,.53-1.36V67.16a.06.06,0,0,0-.07-.07h-1.77a.15.15,0,0,1-.17-.17v-1a.15.15,0,0,1,.17-.17h3.29a.15.15,0,0,1,.17.17v2.64a3.4,3.4,0,0,1-1,2.56A3.62,3.62,0,0,1,184,72a3.59,3.59,0,0,1-2.59-.94"/><path class="cls-2" d="M196.14,60.05h1.28c.12,0,.17.05.17.17V71.7a.15.15,0,0,1-.17.17h-1.35a.19.19,0,0,1-.2-.12l-4.07-8.19-.06,0s0,0,0,0V71.7c0,.11,0,.17-.16.17h-1.29a.15.15,0,0,1-.17-.17V60.22a.15.15,0,0,1,.17-.17h1.35a.21.21,0,0,1,.21.12l4,8.18a.07.07,0,0,0,.06,0s0,0,0,0V60.22a.15.15,0,0,1,.17-.17"/><path class="cls-2" d="M206.84,61.45H202s-.07,0-.07.07v3.64s0,.07.07.07h3.22a.15.15,0,0,1,.17.17v1.06a.15.15,0,0,1-.17.17H202s-.07,0-.07.07v3.7s0,.06.07.06h4.89a.15.15,0,0,1,.17.17V71.7c0,.11,0,.16-.17.16h-6.41c-.11,0-.17,0-.17-.16V60.22a.15.15,0,0,1,.17-.17h6.41c.12,0,.17.05.17.17v1.06a.15.15,0,0,1-.17.17"/><path class="cls-2" d="M210.91,61.52V65.3a.07.07,0,0,0,.07.07h2a1.61,1.61,0,0,0,1.26-.54,2,2,0,0,0,.48-1.4,2.13,2.13,0,0,0-.47-1.44,1.61,1.61,0,0,0-1.27-.54h-2a.06.06,0,0,0-.07.07m3.9,10.21-2-5a.06.06,0,0,0-.06,0H211a.06.06,0,0,0-.07.07v5a.15.15,0,0,1-.17.17h-1.28a.15.15,0,0,1-.17-.17V60.22a.15.15,0,0,1,.17-.17h3.78a3,3,0,0,1,2.28.93,3.41,3.41,0,0,1,.86,2.43,3.49,3.49,0,0,1-.52,1.94,2.65,2.65,0,0,1-1.44,1.11s0,0,0,.09l2.06,5.11,0,.07c0,.09-.05.14-.16.14H215a.2.2,0,0,1-.19-.14"/></svg>